<?xml version="1.0" encoding="UTF-8" standalone="no"?>
<!DOCTYPE svg PUBLIC "-//W3C//DTD SVG 1.1//EN" "http://www.w3.org/Graphics/SVG/1.1/DTD/svg11.dtd">
<svg width="100%" height="100%" viewBox="0 0 144 263" version="1.1" xmlns="http://www.w3.org/2000/svg" xmlns:xlink="http://www.w3.org/1999/xlink" xml:space="preserve" xmlns:serif="http://www.serif.com/" style="fill-rule:evenodd;clip-rule:evenodd;stroke-linejoin:round;stroke-miterlimit:2;">
    <g transform="matrix(1,0,0,1,-569.299967,-2025.796858)">
        <g transform="matrix(0.355122,0,0,0.329408,-42.107321,1440.900366)">
            <g transform="matrix(47.026346,0,0,50.697276,-16005.026153,-16845.866285)">
                <path d="M384.633,371.747C384.913,371.963 385.135,372.251 385.299,372.611C385.463,372.971 385.545,373.411 385.545,373.931C385.545,374.595 385.413,381.582 385.149,381.966C384.885,382.35 384.537,382.62 384.105,382.776C383.673,382.932 383.209,383.01 382.713,383.01L376.953,383.01L376.953,367.307L382.173,367.307C382.693,367.307 383.185,367.397 383.649,367.577C384.113,367.757 384.491,368.039 384.783,368.423C385.075,368.807 385.221,369.299 385.221,369.899C385.221,370.347 385.171,370.721 385.071,371.021C384.971,371.321 384.825,371.563 384.633,371.747ZM381.513,370.343L380.625,370.343L380.625,370.991L381.561,370.991C381.625,370.991 381.695,370.971 381.771,370.931C381.847,370.891 381.885,370.807 381.885,370.679C381.885,370.543 381.839,370.453 381.747,370.409C381.655,370.365 381.577,370.343 381.513,370.343ZM380.625,373.499L381.873,373.499C381.937,373.499 382.007,373.479 382.083,373.439C382.159,373.399 382.197,373.315 382.197,373.187C382.197,373.051 382.151,372.961 382.059,372.917C381.967,372.873 381.889,372.851 381.825,372.851L380.625,372.851L380.625,373.499Z" style="fill:white;fill-rule:nonzero;"/>
            </g>
        </g>
    </g>
</svg>
